<svg width="16" height="16" viewBox="0 0 16 16" fill="none" xmlns="http://www.w3.org/2000/svg">
<path d="M8.00037 1.83008C9.36791 1.83018 10.6798 2.37381 11.6469 3.34082C12.6093 4.30347 13.1498 5.60945 13.1498 6.9707C13.1497 8.33177 12.6091 9.63707 11.6469 10.5996L11.6459 10.6006L8.10583 14.1543L8.10486 14.1553C8.0895 14.1707 8.07122 14.183 8.05115 14.1914C8.03085 14.1999 8.00869 14.2041 7.98669 14.2041C7.96469 14.2041 7.94255 14.1999 7.92224 14.1914C7.90217 14.183 7.88389 14.1707 7.86853 14.1553L7.86755 14.1533L4.35388 10.6338L4.17712 10.4482C3.32063 9.50235 2.84323 8.26939 2.84314 6.9873C2.84314 5.61962 3.38678 4.30792 4.35388 3.34082C5.32098 2.37372 6.63268 1.83008 8.00037 1.83008ZM8.00037 2.14941C7.04992 2.14941 6.12078 2.43203 5.33044 2.95996C4.54009 3.48793 3.92387 4.23816 3.55994 5.11621C3.19604 5.99422 3.10042 6.96034 3.28552 7.89258C3.47057 8.82442 3.92771 9.68029 4.599 10.3525V10.3535L7.64587 13.4131L8.00037 13.7686L8.35388 13.4131L11.4008 10.3535C12.0724 9.68119 12.5291 8.82468 12.7142 7.89258C12.8993 6.96043 12.8046 5.99415 12.4408 5.11621C12.0769 4.23833 11.4604 3.48791 10.6703 2.95996C9.88003 2.43206 8.95072 2.14949 8.00037 2.14941ZM8.0365 4.61133C8.34839 4.61393 8.65674 4.67765 8.94373 4.7998C9.23084 4.92203 9.49122 5.1001 9.70935 5.32324L9.71521 5.3291C9.93642 5.54764 10.1121 5.80832 10.2308 6.0957C10.3495 6.38286 10.409 6.69127 10.4066 7.00195C10.4017 7.4693 10.2592 7.92501 9.99646 8.31152C9.73363 8.6981 9.36196 8.99836 8.92908 9.1748C8.49626 9.35117 8.02096 9.39541 7.56287 9.30273C7.10473 9.21003 6.68314 8.98412 6.35291 8.65332C5.90872 8.20729 5.65955 7.60315 5.65955 6.97363C5.65955 6.34481 5.90769 5.74081 6.35095 5.29492L6.35193 5.2959C6.57363 5.07642 6.83638 4.90266 7.12537 4.78516C7.41444 4.66765 7.72446 4.60877 8.0365 4.61133ZM8.42029 4.95605C7.9535 4.86334 7.46857 4.93617 7.04919 5.16113C6.62994 5.38611 6.30138 5.74938 6.12048 6.18945C5.93955 6.62963 5.91707 7.11935 6.05701 7.57422C6.19695 8.02906 6.49103 8.42125 6.88806 8.68359C7.28495 8.9458 7.76068 9.06221 8.23376 9.0127C8.70705 8.96304 9.14884 8.75016 9.48279 8.41113L10.3207 7.56055H9.97595C10.0348 7.37594 10.069 7.18255 10.0736 6.98535V6.97461C10.0746 6.49874 9.9103 6.03709 9.60876 5.66895C9.30724 5.30084 8.88699 5.0488 8.42029 4.95605Z" fill="#616161" stroke="#616161"/>
</svg>
