<svg width="16" height="16" viewBox="0 0 16 16" fill="none" xmlns="http://www.w3.org/2000/svg">
<path d="M4.00002 7.33301C3.86817 7.33301 3.73927 7.37211 3.62964 7.44536C3.52001 7.51862 3.43456 7.62273 3.3841 7.74455C3.33364 7.86637 3.32044 8.00041 3.34616 8.12973C3.37189 8.25906 3.43538 8.37784 3.52862 8.47108C3.62185 8.56431 3.74064 8.62781 3.86996 8.65353C3.99928 8.67926 4.13332 8.66605 4.25514 8.61559C4.37696 8.56514 4.48108 8.47969 4.55433 8.37006C4.62759 8.26042 4.66669 8.13153 4.66669 7.99967C4.66669 7.82286 4.59645 7.65329 4.47142 7.52827C4.3464 7.40325 4.17683 7.33301 4.00002 7.33301ZM12 7.33301C11.8682 7.33301 11.7393 7.37211 11.6296 7.44536C11.52 7.51862 11.4346 7.62273 11.3841 7.74455C11.3336 7.86637 11.3204 8.00041 11.3462 8.12973C11.3719 8.25906 11.4354 8.37784 11.5286 8.47108C11.6219 8.56431 11.7406 8.62781 11.87 8.65353C11.9993 8.67926 12.1333 8.66605 12.2551 8.61559C12.377 8.56514 12.4811 8.47969 12.5543 8.37006C12.6276 8.26042 12.6667 8.13153 12.6667 7.99967C12.6667 7.82286 12.5964 7.65329 12.4714 7.52827C12.3464 7.40325 12.1768 7.33301 12 7.33301ZM13.3334 3.33301H2.66669C2.13625 3.33301 1.62755 3.54372 1.25247 3.91879C0.877401 4.29387 0.666687 4.80257 0.666687 5.33301V10.6663C0.666687 11.1968 0.877401 11.7055 1.25247 12.0806C1.62755 12.4556 2.13625 12.6663 2.66669 12.6663H13.3334C13.8638 12.6663 14.3725 12.4556 14.7476 12.0806C15.1226 11.7055 15.3334 11.1968 15.3334 10.6663V5.33301C15.3334 4.80257 15.1226 4.29387 14.7476 3.91879C14.3725 3.54372 13.8638 3.33301 13.3334 3.33301ZM14 10.6663C14 10.8432 13.9298 11.0127 13.8048 11.1377C13.6797 11.2628 13.5102 11.333 13.3334 11.333H2.66669C2.48988 11.333 2.32031 11.2628 2.19528 11.1377C2.07026 11.0127 2.00002 10.8432 2.00002 10.6663V5.33301C2.00002 5.1562 2.07026 4.98663 2.19528 4.8616C2.32031 4.73658 2.48988 4.66634 2.66669 4.66634H13.3334C13.5102 4.66634 13.6797 4.73658 13.8048 4.8616C13.9298 4.98663 14 5.1562 14 5.33301V10.6663ZM8.00002 5.99967C7.60446 5.99967 7.21778 6.11697 6.88888 6.33674C6.55998 6.5565 6.30364 6.86886 6.15226 7.23431C6.00089 7.59976 5.96128 8.00189 6.03845 8.38986C6.11562 8.77782 6.3061 9.13418 6.58581 9.41389C6.86551 9.69359 7.22188 9.88408 7.60984 9.96125C7.9978 10.0384 8.39993 9.99881 8.76539 9.84743C9.13084 9.69606 9.4432 9.43971 9.66296 9.11082C9.88272 8.78192 10 8.39524 10 7.99967C10 7.46924 9.78931 6.96053 9.41423 6.58546C9.03916 6.21039 8.53045 5.99967 8.00002 5.99967ZM8.00002 8.66634C7.86817 8.66634 7.73927 8.62724 7.62964 8.55399C7.52001 8.48073 7.43456 8.37661 7.3841 8.2548C7.33364 8.13298 7.32044 7.99894 7.34616 7.86961C7.37189 7.74029 7.43538 7.62151 7.52862 7.52827C7.62185 7.43504 7.74064 7.37154 7.86996 7.34582C7.99928 7.32009 8.13333 7.3333 8.25514 7.38375C8.37696 7.43421 8.48108 7.51966 8.55433 7.62929C8.62759 7.73893 8.66669 7.86782 8.66669 7.99967C8.66669 8.17649 8.59645 8.34605 8.47142 8.47108C8.3464 8.5961 8.17683 8.66634 8.00002 8.66634Z" fill="#616161"/>
</svg>
